#!OML:ASF X:\für Bonn\!DataBase\2005_08_10_Bjorn_Final\c3d\bjorn.ASF
:FULLY-SPECIFIED
:DEGREES
171
root -12.4595 17.2579 19.5626 -185.297 -246.155 -185.271
lowerback 2.71369 4.16099 1.22534
upperback 8.95559 6.15206 -4.01898
thorax 8.51518 3.46191 -4.60968
lowerneck -2.04936 1.71633 3.19377
upperneck -1.75171 2.25533 0.25891
head -0.16418 1.11963 -0.430413
rclavicle -7.63333e-014 1.59028e-014
rhumerus -51.0165 6.29612 -101.641
rradius 75.9453
rwrist 6.54587
rhand -21.6962 26.5711
rfingers 7.12502
rthumb 4.70213 -3.35671
lclavicle -7.63333e-014 1.59028e-014
lhumerus -33.727 0.612874 90.5779
lradius 87.3232
lwrist -1.53593
lhand -47.9336 -24.3521
lfingers 7.12502
lthumb -20.6046 4.57431
rfemur -20.7765 -6.85791 0.565472
rtibia 75.7009
rfoot -12.2083 9.07143
rtoes -31.7227
lfemur -10.6096 1.34643 -36.1573
ltibia 49.2751
lfoot -28.6657 1.46343
ltoes 10.4792
172
root -12.204 17.2887 19.6596 -185.333 -247.014 -185.715
lowerback 2.32383 3.79018 1.09309
upperback 8.90436 5.64506 -3.94628
thorax 8.60749 3.19117 -4.46303
lowerneck -1.9443 2.03337 3.1058
upperneck -1.91401 2.68414 0.0985672
head -0.223181 1.33289 -0.464863
rclavicle 3.49861e-014 -7.95139e-015
rhumerus -51.9364 5.95319 -101.042
rradius 75.9996
rwrist 6.68151
rhand -22.0701 25.9576
rfingers 7.12502
rthumb 4.34112 -3.97793
lclavicle 3.49861e-014 -7.95139e-015
lhumerus -32.7722 -0.672993 90.6716
lradius 88.0766
lwrist -0.731809
lhand -47.9462 -24.6319
lfingers 7.12502
lthumb -20.6167 4.29319
rfemur -22.9517 -6.72683 1.29919
rtibia 75.5062
rfoot -13.3258 8.53508
rtoes -31.8793
lfemur -9.36861 0.827972 -35.9674
ltibia 48.3343
lfoot -28.7142 0.726923
ltoes 10.9005
173
root -11.9465 17.3265 19.7555 -185.496 -247.905 -186.369
lowerback 1.857 3.39073 1.00779
upperback 8.82873 5.09331 -3.83656
thorax 8.71866 2.89861 -4.30577
lowerneck -1.96241 2.36815 3.02677
upperneck -1.88114 3.12802 -0.090626
head -0.201859 1.55571 -0.50678
rclavicle -3.26007e-014 1.27222e-014
rhumerus -52.7917 5.71416 -100.456
rradius 75.9483
rwrist 6.81071
rhand -22.3912 25.4766
rfingers 7.12502
rthumb 4.03101 -4.46505
lclavicle -3.26007e-014 1.27222e-014
lhumerus -31.925 -1.93222 90.6979
lradius 88.8937
lwrist -0.176556
lhand -47.8323 -24.2441
lfingers 7.12502
lthumb -20.5073 4.6928
rfemur -25.0821 -6.59715 2.09922
rtibia 75.0615
rfoot -14.3282 7.96913
rtoes -31.7561
lfemur -8.17988 0.233042 -35.6887
ltibia 47.2616
lfoot -28.4707 -0.0367116
ltoes 11.2105
174
root -11.6832 17.3815 19.849 -185.834 -248.813 -187.25
lowerback 1.36617 2.99112 0.962773
upperback 8.73135 4.5342 -3.6814
thorax 8.82338 2.60245 -4.12762
lowerneck -2.12338 2.709 2.95546
upperneck -1.61837 3.57204 -0.301945
head -0.086406 1.78007 -0.552099
rclavicle -1.51076e-014 -5.24792e-014
rhumerus -53.549 5.5228 -99.8557
rradius 75.7633
rwrist 6.92418
rhand -22.8283 25.5462
rfingers 7.12502
rthumb 3.60888 -4.40301
lclavicle -1.51076e-014 -5.24792e-014
lhumerus -31.1274 -3.11986 90.7295
lradius 89.6746
lwrist 0.162173
lhand -47.4968 -23.4507
lfingers 7.12502
lthumb -20.1849 5.52064
rfemur -27.1018 -6.57819 2.95528
rtibia 74.3623
rfoot -15.1932 7.38653
rtoes -31.6224
lfemur -6.961 -0.391643 -35.3126
ltibia 46.0243
lfoot -27.9305 -0.831204
ltoes 11.5149
175
root -11.4133 17.4521 19.9399 -186.064 -249.71 -188.019
lowerback 0.853988 2.62077 0.883215
upperback 8.62022 4.01852 -3.55917
thorax 8.93542 2.32757 -3.96695
lowerneck -2.25522 3.02835 2.94169
upperneck -1.32115 3.98857 -0.480687
head 0.0356765 1.99003 -0.596272
rclavicle -5.64548e-014 2.8625e-014
rhumerus -54.2174 5.29292 -99.3182
rradius 75.4808
rwrist 6.96927
rhand -23.4831 26.177
rfingers 7.12502
rthumb 2.97654 -3.78194
lclavicle -5.64548e-014 2.8625e-014
lhumerus -30.4402 -4.54385 90.6083
lradius 90.3708
lwrist 0.434863
lhand -47.1899 -22.6077
lfingers 7.12502
lthumb -19.8898 6.39455
rfemur -29.0137 -6.63309 3.72329
rtibia 73.45
rfoot -15.9676 6.86793
rtoes -31.4087
lfemur -5.67199 -0.947641 -34.9684
ltibia 44.6029
lfoot -27.1131 -1.63429
ltoes 11.5119
176
root -11.1403 17.5303 20.0293 -186.336 -250.622 -188.8
lowerback 0.333831 2.24057 0.73783
upperback 8.549 3.49192 -3.38733
thorax 9.09248 2.04195 -3.72211
lowerneck -2.46342 3.36212 2.85616
upperneck -0.99818 4.42496 -0.64047
head 0.17746 2.20975 -0.619982
rclavicle 5.92378e-014 -3.65764e-014
rhumerus -54.7627 5.10785 -98.7114
rradius 75.1544
rwrist 6.90448
rhand -24.0065 26.8804
rfingers 7.12502
rthumb 2.47111 -3.08507
lclavicle 5.92378e-014 -3.65764e-014
lhumerus -29.8011 -6.01586 90.468
lradius 90.9739
lwrist 0.632528
lhand -46.9502 -22.3181
lfingers 7.12502
lthumb -19.6595 6.70786
rfemur -30.7846 -6.72401 4.453
rtibia 72.3341
rfoot -16.6028 6.4955
rtoes -30.7052
lfemur -4.29293 -1.338 -34.5696
ltibia 43.0204
lfoot -26.0439 -2.55477
ltoes 11.2742
177
root -10.8666 17.6129 20.1175 -186.795 -251.54 -189.703
lowerback -0.0817985 1.86176 0.601646
upperback 8.46106 2.96385 -3.19428
thorax 9.17565 1.75541 -3.46953
lowerneck -2.52163 3.68859 2.7061
upperneck -0.771749 4.86008 -0.710069
head 0.261671 2.42826 -0.607997
rclavicle 4.37326e-015 4.29375e-014
rhumerus -55.3512 4.90746 -98.1297
rradius 74.8728
rwrist 6.56835
rhand -24.3799 27.41
rfingers 7.12502
rthumb 2.11045 -2.5593
lclavicle 4.37326e-015 4.29375e-014
lhumerus -29.2553 -7.4106 90.2802
lradius 91.3993
lwrist 0.579892
lhand -46.9304 -22.7364
lfingers 7.12502
lthumb -19.6404 6.29147
rfemur -32.3605 -6.78301 5.16878
rtibia 70.9844
rfoot -17.0751 6.33021
rtoes -29.4477
lfemur -2.79831 -1.75082 -34.1172
ltibia 41.3089
lfoot -24.7238 -3.55973
ltoes 11.6235
178
root -10.5895 17.7033 20.2055 -187.498 -252.411 -190.82
lowerback -0.501393 1.51485 0.565801
upperback 8.41381 2.4811 -3.03662
thorax 9.32442 1.50362 -3.31152
lowerneck -2.51205 3.98968 2.65014
upperneck -0.708864 5.26292 -0.748777
head 0.285639 2.62994 -0.605028
rclavicle -1.35174e-014 -4.13472e-014
rhumerus -55.8653 4.62337 -97.6333
rradius 74.7203
rwrist 6.06311
rhand -24.6153 27.8491
rfingers 7.12502
rthumb 1.88311 -2.1223
lclavicle -1.35174e-014 -4.13472e-014
lhumerus -28.5877 -8.79919 89.9914
lradius 91.6393
lwrist 0.29971
lhand -46.9301 -23.2558
lfingers 7.12502
lthumb -19.64 5.77206
rfemur -33.8214 -6.80112 5.93295
rtibia 69.3975
rfoot -17.4232 6.14261
rtoes -28.92
lfemur -1.24883 -2.08861 -33.5704
ltibia 39.5155
lfoot -23.2148 -4.54246
ltoes 11.6531
179
root -10.308 17.8027 20.2901 -188.363 -253.259 -192.032
lowerback -0.881866 1.16316 0.523961
upperback 8.39252 1.99007 -2.83994
thorax 9.48061 1.24677 -3.11469
lowerneck -2.41805 4.28018 2.49897
upperneck -0.722608 5.65641 -0.816392
head 0.270148 2.82652 -0.598135
rclavicle -7.95139e-015 -5.56597e-014
rhumerus -56.3081 4.37456 -97.0778
rradius 74.558
rwrist 5.54045
rhand -24.8515 28.1858
rfingers 7.12502
rthumb 1.655 -1.78753
lclavicle -7.95139e-015 -5.56597e-014
lhumerus -27.9707 -10.0693 89.7198
lradius 91.8307
lwrist 0.00703393
lhand -46.8144 -23.765
lfingers 7.12502
lthumb -19.5288 5.27424
rfemur -35.1234 -6.84443 6.66201
rtibia 67.5665
rfoot -17.5077 6.16351
rtoes -28.9413
lfemur 0.357359 -2.16337 -32.938
ltibia 37.6682
lfoot -21.4497 -5.47921
ltoes 10.4002
180
root -10.0223 17.9128 20.3737 -189.513 -254.06 -193.488
lowerback -1.2004 0.824884 0.501857
upperback 8.34669 1.51018 -2.60802
thorax 9.57764 0.994614 -2.89535
lowerneck -2.26491 4.55604 2.42296
upperneck -0.658092 6.02861 -1.01508
head 0.275204 3.0118 -0.644431
rclavicle -5.84427e-014 3.18055e-014
rhumerus -56.7635 4.06488 -96.4907
rradius 74.4241
rwrist 5.17453
rhand -25.1065 28.4238
rfingers 7.12502
rthumb 1.40868 -1.55134
lclavicle -5.84427e-014 3.18055e-014
lhumerus -27.4764 -11.3184 89.4787
lradius 92.0543
lwrist -0.209006
lhand -46.5914 -24.1846
lfingers 7.12502
lthumb -19.3145 4.87624
rfemur -36.2281 -6.88202 7.42083
rtibia 65.4824
rfoot -17.3026 6.52711
rtoes -28.8815
lfemur 1.98923 -2.04435 -32.1863
ltibia 35.7665
lfoot -19.4485 -6.31851
ltoes 8.02411
181
root -9.73212 18.0291 20.4548 -190.908 -254.839 -195.18
lowerback -1.52357 0.48632 0.511652
upperback 8.28177 1.02463 -2.35952
thorax 9.66142 0.741205 -2.68022
lowerneck -2.07437 4.83625 2.44521
upperneck -0.55152 6.40493 -1.35973
head 0.296286 3.19842 -0.751948
rclavicle 1.23246e-014 -3.49861e-014
rhumerus -57.1811 3.70238 -95.8711
rradius 74.2629
rwrist 4.94761
rhand -25.2878 28.5405
rfingers 7.12502
rthumb 1.23359 -1.4357
lclavicle 1.23246e-014 -3.49861e-014
lhumerus -27.1428 -12.5231 89.2645
lradius 92.2172
lwrist -0.364068
lhand -46.4141 -24.7853
lfingers 7.12502
lthumb -19.144 4.29252
rfemur -37.1217 -6.95295 8.15929
rtibia 63.1872
rfoot -16.7758 7.32862
rtoes -28.0176
lfemur 3.59429 -1.86217 -31.3641
ltibia 33.8737
lfoot -17.2891 -7.15487
ltoes 5.35532
182
root -9.43663 18.1481 20.5335 -192.369 -255.548 -196.935
lowerback -1.8727 0.184084 0.560416
upperback 8.21559 0.587367 -2.1361
thorax 9.76802 0.516614 -2.51236
lowerneck -1.95226 5.08565 2.61988
upperneck -0.346323 6.73685 -1.86164
head 0.371203 3.36194 -0.93058
rclavicle 9.93923e-015 -3.02153e-014
rhumerus -57.5979 3.27055 -95.2812
rradius 74.1612
rwrist 4.76897
rhand -25.5528 28.5508
rfingers 7.12502
rthumb 0.977617 -1.4267
lclavicle 9.93923e-015 -3.02153e-014
lhumerus -26.8557 -13.7463 89.0308
lradius 92.2398
lwrist -0.459881
lhand -46.321 -25.1337
lfingers 7.12502
lthumb -19.0544 3.95294
rfemur -37.8988 -7.01693 8.84881
rtibia 60.7291
rfoot -15.829 8.15845
rtoes -27.5454
lfemur 5.12911 -1.63841 -30.5362
ltibia 32.0125
lfoot -14.9285 -8.01777
ltoes 3.12884
